# xmcd CD database file
#
# Track frame offsets:
#	150
#	11640
#	23747
#	34975
#	45320
#	58845
#	71195
#	84455
#	96917
#	110165
#	123752
#	135992
#	149780
#	161612
#	174175
#	187007
#	200107
#	211292
#	222097
#	235655
#
# Disc length: 3331 seconds
#
# Revision: 0
# Processed by: cddbd v1.5.2PL0 Copyright (c) Steve Scherf et al.
# Submitted via: CDex 1.70beta2
#
DISCID=240d0114
DTITLE=B. B. King - Take A Swing With Me
DYEAR=2006
DGENRE=Blues
TTITLE0=Take A Swing With Me
TTITLE1=Miss Martha King
TTITLE2=She's Dynamite
TTITLE3=That Ain't The Way To Do It
TTITLE4=Three O C'lock Blues
TTITLE5=Gotta Find My Baby
TTITLE6=Story From My Heart And Soul
TTITLE7=Boogie Woogie Woman
TTITLE8=Woke Up This Morning
TTITLE9=Blind Love
TTITLE10=Please Hurry Home
TTITLE11=You Know I Love You
TTITLE12=Don't You Want A Man Like Me
TTITLE13=Please Love Me
TTITLE14=The Woman I Love
TTITLE15=When My Haert Beats Like A Hammer
TTITLE16=Bye, Bye Baby
TTITLE17=Everything I Do Is Wong
TTITLE18=You Upset Me Baby
TTITLE19=Whole Lotta Love
EXTD=YEAR: 2006
EXTT0=
EXTT1=
EXTT2=
EXTT3=
EXTT4=
EXTT5=
EXTT6=
EXTT7=
EXTT8=
EXTT9=
EXTT10=
EXTT11=
EXTT12=
EXTT13=
EXTT14=
EXTT15=
EXTT16=
EXTT17=
EXTT18=
EXTT19=
PLAYORDER=
